<svg width="512" height="512" viewBox="0 0 512 512" fill="none" xmlns="http://www.w3.org/2000/svg">
<path fill-rule="evenodd" clip-rule="evenodd" d="M128 32C74.9807 32 32 74.9807 32 128V384C32 437.019 74.9807 480 128 480H384C437.019 480 480 437.019 480 384V128C480 74.9807 437.019 32 384 32H128ZM180 128C180 116.954 188.954 108 200 108H248C263.464 108 276 120.536 276 136V364H352C363.046 364 372 372.954 372 384C372 395.046 363.046 404 352 404H160C148.954 404 140 395.046 140 384C140 372.954 148.954 364 160 364H236V148H200C188.954 148 180 139.046 180 128Z" fill="black" id="id_102"></path>
</svg>