<?xml version="1.0" encoding="utf-8"?>
<!-- Generator: Adobe Illustrator 23.0.3, SVG Export Plug-In . SVG Version: 6.00 Build 0)  -->
<svg version="1.1" id="Layer_1" xmlns="http://www.w3.org/2000/svg" xmlns:xlink="http://www.w3.org/1999/xlink" x="0px" y="0px"
	 viewBox="0 0 50 50" style="enable-background:new 0 0 50 50;" xml:space="preserve">
<style type="text/css">
	.st0{fill:#2980B9;}
	.st1{fill:#037CC6;}
	.st2{fill:#9B59B6;}
	.st3{fill:#27AE60;}
	.st4{fill:#E74C3C;}
	.st5{fill:#34495E;}
	.st6{fill:#D35400;}
	.st7{fill:#E22D2D;}
	.st8{fill:#1ABC9C;}
	.st9{fill:#F39C12;}
	.st10{fill:#E67E22;}
	.st11{fill:#0C0C0C;}
	.st12{fill:none;stroke:#0C0C0C;stroke-width:2;stroke-linecap:round;stroke-linejoin:round;stroke-miterlimit:10;}
	.st13{fill:#FFFFFF;stroke:#0C0C0C;stroke-width:2;stroke-linecap:round;stroke-linejoin:round;stroke-miterlimit:10;}
</style>
<g>
	<g>
		<path class="st1" d="M25.7,46.3c-0.2,0-0.3,0-0.5-0.1L8.3,36.4c-0.3-0.2-0.5-0.5-0.5-0.9V16.1c0-0.4,0.2-0.7,0.5-0.9l16.8-9.7
			c0.3-0.2,0.7-0.2,1,0L43,15.2c0.3,0.2,0.5,0.5,0.5,0.9v19.5c0,0.4-0.2,0.7-0.5,0.9l-16.8,9.7C26,46.2,25.8,46.3,25.7,46.3z
			 M9.8,35l15.8,9.1L41.5,35V16.7L25.7,7.5L9.8,16.7V35z"/>
		<g>
			<path class="st1" d="M14.5,33.9c-0.3,0-0.7-0.2-0.9-0.5c-0.3-0.5-0.1-1.1,0.4-1.4l10.7-6V12.9c0-0.6,0.4-1,1-1s1,0.4,1,1v13.8
				c0,0.4-0.2,0.7-0.5,0.9L15,33.8C14.8,33.9,14.6,33.9,14.5,33.9z"/>
			<path class="st1" d="M36.8,33.9c-0.2,0-0.3,0-0.5-0.1l-11.1-6.3c-0.5-0.3-0.6-0.9-0.4-1.4c0.3-0.5,0.9-0.6,1.4-0.4l11.1,6.3
				c0.5,0.3,0.6,0.9,0.4,1.4C37.4,33.8,37.1,33.9,36.8,33.9z"/>
		</g>
	</g>
</g>
</svg>
