<svg version="1.1" id="Layer_1" xmlns="http://www.w3.org/2000/svg" xmlns:xlink="http://www.w3.org/1999/xlink" x="0px" y="0px" viewBox="0 0 308.2737 224.8643" enable-background="new 0 0 308.2737 224.8643" xml:space="preserve">
<g>
<path d="M176.6368,22.5c0-12.4269-10.0723-22.5-22.5-22.5c-12.4258,0-22.5,10.0731-22.5,22.5
		c0,5.1898,1.7618,9.9655,4.7135,13.7719h35.5735C174.8754,32.4655,176.6368,27.6898,176.6368,22.5z" id="id_101" style="fill: rgb(219, 3, 179);"></path>
<path d="M128.6863,134.9105c-1.139,1.2805-2.5461,2.2361-4.1089,2.8142l-6.0166,73.771
		c-0.5547,6.807,4.5135,12.7725,11.3183,13.3271c6.8047,0.5542,12.7734-4.5098,13.3281-11.3174l6.6413-81.4297h-19.3773
		C130.0378,133.0978,129.4455,134.0569,128.6863,134.9105z" id="id_102" style="fill: rgb(222, 0, 181);"></path>
<path d="M189.7131,211.4957l-6.0167-73.771c-1.5628-0.578-2.97-1.5337-4.109-2.8142c-0.7592-0.8536-1.3516-1.8127-1.7849-2.8347
		h-19.3771l6.6412,81.4297c0.5547,6.8076,6.5234,11.8716,13.3281,11.3174C185.1993,224.2682,190.2678,218.3027,189.7131,211.4957z" id="id_103" style="fill: rgb(224, 0, 183);"></path>
<path d="M112.6629,121.9181h16.0131c-1.4182-30.0166,0.5966-46.8879,2.9886-56.2708l2.2964,0.4154
		c-2.3074,8.9546-4.4139,25.5922-2.9812,55.8553h46.3142c1.4327-30.2632-0.6738-46.9008-2.9812-55.8553l2.2964-0.4154
		c2.392,9.3828,4.4067,26.2542,2.9886,56.2708h16.0131c1.1615-25.4753,0.0621-45.2382-3.285-59.1144
		c-2.1642-8.9717-5.2678-15.4828-9.3015-19.5013c-0.0411-0.041-0.0801-0.0872-0.1214-0.1277
		c-2.2772-2.229-4.5269-3.3829-6.398-3.9752c-0.9361-0.4027-1.9667-0.6276-3.0506-0.6276h-38.6348
		c-1.0839,0-2.1145,0.2249-3.0506,0.6276c-1.8711,0.5923-4.1208,1.7462-6.398,3.9752c-0.0409,0.04-0.0797,0.0859-0.1204,0.1266
		c-4.0342,4.0184-7.1382,10.53-9.3025,19.5024C112.6007,76.6799,111.5013,96.4427,112.6629,121.9181z" id="id_104" style="fill: rgb(222, 0, 181);"></path>
<path d="M114.0705,132.0758c1.3929,2.3989,3.9863,3.99,6.9117,3.9895c0.1572,0,0.3164-0.0044,0.4746-0.0137
		c2.7842-0.1626,5.1493-1.7324,6.4524-3.9758H114.0705z" id="id_105" style="fill: rgb(219, 0, 179);"></path>
<path d="M180.3645,132.0758c1.3031,2.2434,3.6682,3.8132,6.4524,3.9758c0.1582,0.0093,0.3174,0.0137,0.4746,0.0137
		c2.9254,0.0005,5.5187-1.5906,6.9117-3.9895H180.3645z" id="id_106" style="fill: rgb(219, 0, 179);"></path>
<path d="M250.9368,129.7758v32.3579c0,2.2002,1.7998,4,4,4h0.7158c2.2002,0,4-1.7998,4-4v-21.5581h6.8213v-10.7998h30.7578v-5.5581
		h-30.7578v-10.7998h-6.8213V91.8597c0-2.1997-1.7998-4-4-4h-0.7158c-2.2002,0-4,1.8003-4,4v32.3579H57.3361V91.8597
		c0-2.1997-1.7998-4-4-4h-0.7158c-2.1992,0-4,1.8003-4,4v21.5581H41.8v10.7998H11.0412v5.5581H41.8v10.7998h6.8203v21.5581
		c0,2.2002,1.8008,4,4,4h0.7158c2.2002,0,4-1.7998,4-4v-32.3579H250.9368z" id="id_107" style="fill: rgb(219, 0, 179);"></path>
<path d="M300.1895,104.2443l-0.8868,0.6472c0,0,14.1276,15.3732,0.6168,39.1492l-3.8352-5.1858l-1.0106,15.2842l13.2001-8.2104
		l-5.901-0.7739C316.0567,119.4117,300.1895,104.2443,300.1895,104.2443z" id="id_108" style="fill: rgb(217, 0, 177);"></path>
<path d="M8.3542,144.0406c-13.5108-23.776,0.6168-39.1492,0.6168-39.1492l-0.8868-0.6472c0,0-15.8672,15.1675-2.1833,40.9104
		L0,145.9286l13.2,8.2104l-1.0106-15.2842L8.3542,144.0406z" id="id_109" style="fill: rgb(219, 0, 179);"></path>
</g>
</svg>